<?xml version="1.0" encoding="utf-8"?>
<!-- Generator: Adobe Illustrator 18.1.1, SVG Export Plug-In . SVG Version: 6.00 Build 0)  -->
<!DOCTYPE svg PUBLIC "-//W3C//DTD SVG 1.1//EN" "http://www.w3.org/Graphics/SVG/1.1/DTD/svg11.dtd">
<svg version="1.1" id="Layer_1" xmlns="http://www.w3.org/2000/svg" xmlns:xlink="http://www.w3.org/1999/xlink" x="0px" y="0px"
	 width="256px" height="256px" viewBox="0 0 256 256" style="enable-background:new 0 0 256 256;" xml:space="preserve">
<style type="text/css">
	.st0{fill:none;stroke:#FFFFFF;stroke-width:2;}
	.st1{fill:#71090A;stroke:#FFFFFF;stroke-width:2;stroke-miterlimit:10;}
	.st2{fill:none;stroke:#FFFFFF;stroke-width:2;stroke-miterlimit:10;}
</style>
<g>
	<path class="st0" d="M140.1,119.5c-28.3-1-50.4-24.8-49.4-53.2c0.8-22.6,19.9-40.3,42.5-39.5c18.1,0.7,32.3,15.9,31.6,34
		c-0.5,14.5-12.7,25.8-27.2,25.3C126,85.7,117,75.9,117.4,64.3c0.3-9.3,8.1-16.5,17.4-16.2c7.4,0.3,13.2,6.5,12.9,13.9
		c-0.2,5.9-5.2,10.6-11.1,10.4c-4.7-0.2-8.5-4.2-8.3-8.9c0.1-3.8,3.3-6.8,7.1-6.6"/>
	<path class="st0" d="M190.2,119c9.4-2.1,15.4-11.4,13.3-20.9c-1.7-7.5-9.2-12.3-16.7-10.6c-6,1.3-9.8,7.3-8.5,13.4
		c1.1,4.8,5.9,7.9,10.7,6.8c3.9-0.9,6.3-4.7,5.4-8.6c-0.7-3.1-3.8-5-6.8-4.4c-2.5,0.5-4,3-3.5,5.5c0.4,2,2.4,3.2,4.4,2.8
		c1.6-0.4,2.6-1.9,2.2-3.5"/>
	<path class="st0" d="M64.6,118.5c-9.4-2.1-15.4-11.4-13.3-20.9C53,90,60.4,85.3,68,87c6,1.3,9.8,7.3,8.5,13.4
		c-1.1,4.8-5.9,7.9-10.7,6.8c-3.9-0.9-6.3-4.7-5.4-8.6c0.7-3.1,3.8-5,6.8-4.4c2.5,0.5,4,3,3.5,5.5c-0.4,2-2.4,3.2-4.4,2.8
		c-1.6-0.4-2.6-1.9-2.2-3.5"/>
	<path class="st1" d="M252.1,141.6c-2,5.7-58.7,9.1-117.1,9.5c-1.9,0-3.8,0-5.7,0h-2.1c-49.6-0.1-92.1-2.4-110.7-5.7
		c-0.5-0.1-1-0.2-1.5-0.3c-4.6-1-7.5-2.2-8.5-3.5c0-5.2,55-9.5,122.8-9.5C197.1,132.1,252.1,136.4,252.1,141.6z"/>
	<path class="st2" d="M252.1,141.6c0,90.5-124,85.4-124,85.4C1.5,227,6.6,141.6,6.6,141.6c1,1.3,3.9,2.4,8.5,3.5
		c0.5,0.1,1,0.2,1.5,0.3c19.8,4,65.1,5.8,110.7,5.7h2.1c1.9,0,3.8,0,5.7,0C200.2,150.9,252.1,146.7,252.1,141.6z"/>
</g>
<g>
</g>
<g>
</g>
<g>
</g>
<g>
</g>
<g>
</g>
<g>
</g>
<g>
</g>
<g>
</g>
<g>
</g>
<g>
</g>
<g>
</g>
<g>
</g>
<g>
</g>
<g>
</g>
<g>
</g>
</svg>
